<svg width="211" height="32" viewBox="0 0 211 32" fill="none" xmlns="http://www.w3.org/2000/svg">
<g clip-path="url(#clip0_201_16)">
<path d="M28.4167 3.875H25.8333V2.58333C25.8326 1.8984 25.5603 1.24172 25.0759 0.757396C24.5916 0.273076 23.9349 0.000683907 23.25 0H7.75C7.06507 0.000683907 6.40838 0.273076 5.92406 0.757396C5.43974 1.24172 5.16735 1.8984 5.16667 2.58333V3.875H2.58333C1.8984 3.87568 1.24172 4.14808 0.757396 4.6324C0.273076 5.11672 0.000683907 5.7734 0 6.45833V10.3333C0.001709 11.7031 0.546601 13.0163 1.51517 13.9848C2.48374 14.9534 3.79691 15.4983 5.16667 15.5H5.58258C6.12083 17.4772 7.22313 19.2548 8.75489 20.6159C10.2867 21.9771 12.1816 22.8627 14.2083 23.1648V28.4167H16.7917V23.1609C18.8447 22.9071 20.7736 22.0403 22.3266 20.6737C23.8796 19.3071 24.9847 17.5041 25.4975 15.5H25.8333C27.2031 15.4983 28.5163 14.9534 29.4848 13.9848C30.4534 13.0163 30.9983 11.7031 31 10.3333V6.45833C30.9993 5.7734 30.7269 5.11672 30.2426 4.6324C29.7583 4.14808 29.1016 3.87568 28.4167 3.875ZM5.16667 12.9167C4.48173 12.916 3.82505 12.6436 3.34073 12.1593C2.85641 11.675 2.58402 11.0183 2.58333 10.3333V6.45833H5.16667V12.9167ZM28.4167 10.3333C28.416 11.0183 28.1436 11.675 27.6593 12.1593C27.1749 12.6436 26.5183 12.916 25.8333 12.9167V6.45833H28.4167V10.3333Z" fill="#222222"/>
<path d="M9.04175 31C9.04175 30.2867 9.62005 29.7084 10.3334 29.7084H20.6667C21.3801 29.7084 21.9584 30.2867 21.9584 31V31.6459H9.04175V31Z" fill="#222222"/>
<path d="M48.8 9.152C50.576 9.152 52.128 9.504 53.456 10.208C54.784 10.912 55.808 11.904 56.528 13.184C57.264 14.448 57.632 15.912 57.632 17.576C57.632 19.224 57.264 20.688 56.528 21.968C55.808 23.248 54.776 24.24 53.432 24.944C52.104 25.648 50.56 26 48.8 26H42.488V9.152H48.8ZM48.536 22.448C50.088 22.448 51.296 22.024 52.16 21.176C53.024 20.328 53.456 19.128 53.456 17.576C53.456 16.024 53.024 14.816 52.16 13.952C51.296 13.088 50.088 12.656 48.536 12.656H46.592V22.448H48.536ZM73.1495 12.608V26H69.0455V24.176C68.6295 24.768 68.0615 25.248 67.3415 25.616C66.6375 25.968 65.8535 26.144 64.9895 26.144C63.9655 26.144 63.0615 25.92 62.2775 25.472C61.4935 25.008 60.8855 24.344 60.4535 23.48C60.0215 22.616 59.8055 21.6 59.8055 20.432V12.608H63.8855V19.88C63.8855 20.776 64.1175 21.472 64.5815 21.968C65.0455 22.464 65.6695 22.712 66.4535 22.712C67.2535 22.712 67.8855 22.464 68.3495 21.968C68.8135 21.472 69.0455 20.776 69.0455 19.88V12.608H73.1495ZM84.2814 26L80.2014 20.384V26H76.0974V8.24H80.2014V18.056L84.2574 12.608H89.3214L83.7534 19.328L89.3694 26H84.2814ZM104.157 12.608V26H100.053V24.176C99.6373 24.768 99.0693 25.248 98.3493 25.616C97.6453 25.968 96.8613 26.144 95.9973 26.144C94.9733 26.144 94.0693 25.92 93.2853 25.472C92.5013 25.008 91.8933 24.344 91.4613 23.48C91.0293 22.616 90.8133 21.6 90.8133 20.432V12.608H94.8933V19.88C94.8933 20.776 95.1253 21.472 95.5893 21.968C96.0533 22.464 96.6773 22.712 97.4613 22.712C98.2613 22.712 98.8933 22.464 99.3573 21.968C99.8213 21.472 100.053 20.776 100.053 19.88V12.608H104.157ZM115.265 12.464C116.833 12.464 118.081 12.976 119.009 14C119.953 15.008 120.425 16.4 120.425 18.176V26H116.345V18.728C116.345 17.832 116.113 17.136 115.649 16.64C115.185 16.144 114.561 15.896 113.777 15.896C112.993 15.896 112.369 16.144 111.905 16.64C111.441 17.136 111.209 17.832 111.209 18.728V26H107.105V12.608H111.209V14.384C111.625 13.792 112.185 13.328 112.889 12.992C113.593 12.64 114.385 12.464 115.265 12.464ZM128.365 12.416C129.309 12.416 130.133 12.608 130.837 12.992C131.557 13.376 132.109 13.88 132.493 14.504V12.608H136.597V25.976C136.597 27.208 136.349 28.32 135.853 29.312C135.373 30.32 134.629 31.12 133.621 31.712C132.629 32.304 131.389 32.6 129.901 32.6C127.917 32.6 126.309 32.128 125.077 31.184C123.845 30.256 123.141 28.992 122.965 27.392H127.021C127.149 27.904 127.453 28.304 127.933 28.592C128.413 28.896 129.005 29.048 129.709 29.048C130.557 29.048 131.229 28.8 131.725 28.304C132.237 27.824 132.493 27.048 132.493 25.976V24.08C132.093 24.704 131.541 25.216 130.837 25.616C130.133 26 129.309 26.192 128.365 26.192C127.261 26.192 126.261 25.912 125.365 25.352C124.469 24.776 123.757 23.968 123.229 22.928C122.717 21.872 122.461 20.656 122.461 19.28C122.461 17.904 122.717 16.696 123.229 15.656C123.757 14.616 124.469 13.816 125.365 13.256C126.261 12.696 127.261 12.416 128.365 12.416ZM132.493 19.304C132.493 18.28 132.205 17.472 131.629 16.88C131.069 16.288 130.381 15.992 129.565 15.992C128.749 15.992 128.053 16.288 127.477 16.88C126.917 17.456 126.637 18.256 126.637 19.28C126.637 20.304 126.917 21.12 127.477 21.728C128.053 22.32 128.749 22.616 129.565 22.616C130.381 22.616 131.069 22.32 131.629 21.728C132.205 21.136 132.493 20.328 132.493 19.304ZM150.126 9.152V20.624C150.126 22.4 149.622 23.768 148.614 24.728C147.622 25.688 146.278 26.168 144.582 26.168C142.806 26.168 141.382 25.664 140.31 24.656C139.238 23.648 138.702 22.216 138.702 20.36H142.782C142.782 21.064 142.926 21.6 143.214 21.968C143.502 22.32 143.918 22.496 144.462 22.496C144.958 22.496 145.342 22.336 145.614 22.016C145.886 21.696 146.022 21.232 146.022 20.624V9.152H150.126ZM166.665 12.608V26H162.561V24.176C162.145 24.768 161.577 25.248 160.857 25.616C160.153 25.968 159.369 26.144 158.505 26.144C157.481 26.144 156.577 25.92 155.793 25.472C155.009 25.008 154.401 24.344 153.969 23.48C153.537 22.616 153.321 21.6 153.321 20.432V12.608H157.401V19.88C157.401 20.776 157.633 21.472 158.097 21.968C158.561 22.464 159.185 22.712 159.969 22.712C160.769 22.712 161.401 22.464 161.865 21.968C162.329 21.472 162.561 20.776 162.561 19.88V12.608H166.665ZM168.797 19.28C168.797 17.904 169.053 16.696 169.565 15.656C170.093 14.616 170.805 13.816 171.701 13.256C172.597 12.696 173.597 12.416 174.701 12.416C175.645 12.416 176.469 12.608 177.173 12.992C177.893 13.376 178.445 13.88 178.829 14.504V12.608H182.933V26H178.829V24.104C178.429 24.728 177.869 25.232 177.149 25.616C176.445 26 175.621 26.192 174.677 26.192C173.589 26.192 172.597 25.912 171.701 25.352C170.805 24.776 170.093 23.968 169.565 22.928C169.053 21.872 168.797 20.656 168.797 19.28ZM178.829 19.304C178.829 18.28 178.541 17.472 177.965 16.88C177.405 16.288 176.717 15.992 175.901 15.992C175.085 15.992 174.389 16.288 173.813 16.88C173.253 17.456 172.973 18.256 172.973 19.28C172.973 20.304 173.253 21.12 173.813 21.728C174.389 22.32 175.085 22.616 175.901 22.616C176.717 22.616 177.405 22.32 177.965 21.728C178.541 21.136 178.829 20.328 178.829 19.304ZM190.006 14.84C190.486 14.104 191.086 13.528 191.806 13.112C192.526 12.68 193.326 12.464 194.206 12.464V16.808H193.078C192.054 16.808 191.286 17.032 190.774 17.48C190.262 17.912 190.006 18.68 190.006 19.784V26H185.902V12.608H190.006V14.84ZM195.352 19.28C195.352 17.904 195.608 16.696 196.12 15.656C196.648 14.616 197.36 13.816 198.256 13.256C199.152 12.696 200.152 12.416 201.256 12.416C202.2 12.416 203.024 12.608 203.728 12.992C204.448 13.376 205 13.88 205.384 14.504V12.608H209.488V26H205.384V24.104C204.984 24.728 204.424 25.232 203.704 25.616C203 26 202.176 26.192 201.232 26.192C200.144 26.192 199.152 25.912 198.256 25.352C197.36 24.776 196.648 23.968 196.12 22.928C195.608 21.872 195.352 20.656 195.352 19.28ZM205.384 19.304C205.384 18.28 205.096 17.472 204.52 16.88C203.96 16.288 203.272 15.992 202.456 15.992C201.64 15.992 200.944 16.288 200.368 16.88C199.808 17.456 199.528 18.256 199.528 19.28C199.528 20.304 199.808 21.12 200.368 21.728C200.944 22.32 201.64 22.616 202.456 22.616C203.272 22.616 203.96 22.32 204.52 21.728C205.096 21.136 205.384 20.328 205.384 19.304Z" fill="#222222"/>
</g>
<defs>
<clipPath id="clip0_201_16">
<rect width="211" height="32" fill="white"/>
</clipPath>
</defs>
</svg>
