<svg width="231" height="56" viewBox="0 0 231 56" fill="none" xmlns="http://www.w3.org/2000/svg">
<path d="M38.4167 13.875H35.8333V12.5833C35.8326 11.8984 35.5603 11.2417 35.0759 10.7574C34.5916 10.2731 33.9349 10.0007 33.25 10H17.75C17.0651 10.0007 16.4084 10.2731 15.9241 10.7574C15.4397 11.2417 15.1674 11.8984 15.1667 12.5833V13.875H12.5833C11.8984 13.8757 11.2417 14.1481 10.7574 14.6324C10.2731 15.1167 10.0007 15.7734 10 16.4583V20.3333C10.0017 21.7031 10.5466 23.0163 11.5152 23.9848C12.4837 24.9534 13.7969 25.4983 15.1667 25.5H15.5826C16.1208 27.4772 17.2231 29.2548 18.7549 30.6159C20.2867 31.9771 22.1816 32.8627 24.2083 33.1648V38.4167H26.7917V33.1609C28.8447 32.9071 30.7736 32.0403 32.3266 30.6737C33.8796 29.3071 34.9847 27.5041 35.4975 25.5H35.8333C37.2031 25.4983 38.5163 24.9534 39.4848 23.9848C40.4534 23.0163 40.9983 21.7031 41 20.3333V16.4583C40.9993 15.7734 40.7269 15.1167 40.2426 14.6324C39.7583 14.1481 39.1016 13.8757 38.4167 13.875ZM15.1667 22.9167C14.4817 22.916 13.8251 22.6436 13.3407 22.1593C12.8564 21.675 12.584 21.0183 12.5833 20.3333V16.4583H15.1667V22.9167ZM38.4167 20.3333C38.416 21.0183 38.1436 21.675 37.6593 22.1593C37.1749 22.6436 36.5183 22.916 35.8333 22.9167V16.4583H38.4167V20.3333Z" fill="#FFD569"/>
<path d="M19.0417 41C19.0417 40.2867 19.62 39.7084 20.3334 39.7084H30.6667C31.3801 39.7084 31.9584 40.2867 31.9584 41V41.6459H19.0417V41Z" fill="white"/>
<path d="M58.8 19.152C60.576 19.152 62.128 19.504 63.456 20.208C64.784 20.912 65.808 21.904 66.528 23.184C67.264 24.448 67.632 25.912 67.632 27.576C67.632 29.224 67.264 30.688 66.528 31.968C65.808 33.248 64.776 34.24 63.432 34.944C62.104 35.648 60.56 36 58.8 36H52.488V19.152H58.8ZM58.536 32.448C60.088 32.448 61.296 32.024 62.16 31.176C63.024 30.328 63.456 29.128 63.456 27.576C63.456 26.024 63.024 24.816 62.16 23.952C61.296 23.088 60.088 22.656 58.536 22.656H56.592V32.448H58.536ZM83.1495 22.608V36H79.0455V34.176C78.6295 34.768 78.0615 35.248 77.3415 35.616C76.6375 35.968 75.8535 36.144 74.9895 36.144C73.9655 36.144 73.0615 35.92 72.2775 35.472C71.4935 35.008 70.8855 34.344 70.4535 33.48C70.0215 32.616 69.8055 31.6 69.8055 30.432V22.608H73.8855V29.88C73.8855 30.776 74.1175 31.472 74.5815 31.968C75.0455 32.464 75.6695 32.712 76.4535 32.712C77.2535 32.712 77.8855 32.464 78.3495 31.968C78.8135 31.472 79.0455 30.776 79.0455 29.88V22.608H83.1495ZM94.2814 36L90.2014 30.384V36H86.0974V18.24H90.2014V28.056L94.2574 22.608H99.3214L93.7534 29.328L99.3694 36H94.2814ZM114.157 22.608V36H110.053V34.176C109.637 34.768 109.069 35.248 108.349 35.616C107.645 35.968 106.861 36.144 105.997 36.144C104.973 36.144 104.069 35.92 103.285 35.472C102.501 35.008 101.893 34.344 101.461 33.48C101.029 32.616 100.813 31.6 100.813 30.432V22.608H104.893V29.88C104.893 30.776 105.125 31.472 105.589 31.968C106.053 32.464 106.677 32.712 107.461 32.712C108.261 32.712 108.893 32.464 109.357 31.968C109.821 31.472 110.053 30.776 110.053 29.88V22.608H114.157ZM125.265 22.464C126.833 22.464 128.081 22.976 129.009 24C129.953 25.008 130.425 26.4 130.425 28.176V36H126.345V28.728C126.345 27.832 126.113 27.136 125.649 26.64C125.185 26.144 124.561 25.896 123.777 25.896C122.993 25.896 122.369 26.144 121.905 26.64C121.441 27.136 121.209 27.832 121.209 28.728V36H117.105V22.608H121.209V24.384C121.625 23.792 122.185 23.328 122.889 22.992C123.593 22.64 124.385 22.464 125.265 22.464ZM138.365 22.416C139.309 22.416 140.133 22.608 140.837 22.992C141.557 23.376 142.109 23.88 142.493 24.504V22.608H146.597V35.976C146.597 37.208 146.349 38.32 145.853 39.312C145.373 40.32 144.629 41.12 143.621 41.712C142.629 42.304 141.389 42.6 139.901 42.6C137.917 42.6 136.309 42.128 135.077 41.184C133.845 40.256 133.141 38.992 132.965 37.392H137.021C137.149 37.904 137.453 38.304 137.933 38.592C138.413 38.896 139.005 39.048 139.709 39.048C140.557 39.048 141.229 38.8 141.725 38.304C142.237 37.824 142.493 37.048 142.493 35.976V34.08C142.093 34.704 141.541 35.216 140.837 35.616C140.133 36 139.309 36.192 138.365 36.192C137.261 36.192 136.261 35.912 135.365 35.352C134.469 34.776 133.757 33.968 133.229 32.928C132.717 31.872 132.461 30.656 132.461 29.28C132.461 27.904 132.717 26.696 133.229 25.656C133.757 24.616 134.469 23.816 135.365 23.256C136.261 22.696 137.261 22.416 138.365 22.416ZM142.493 29.304C142.493 28.28 142.205 27.472 141.629 26.88C141.069 26.288 140.381 25.992 139.565 25.992C138.749 25.992 138.053 26.288 137.477 26.88C136.917 27.456 136.637 28.256 136.637 29.28C136.637 30.304 136.917 31.12 137.477 31.728C138.053 32.32 138.749 32.616 139.565 32.616C140.381 32.616 141.069 32.32 141.629 31.728C142.205 31.136 142.493 30.328 142.493 29.304Z" fill="white"/>
<path d="M160.126 19.152V30.624C160.126 32.4 159.622 33.768 158.614 34.728C157.622 35.688 156.278 36.168 154.582 36.168C152.806 36.168 151.382 35.664 150.31 34.656C149.238 33.648 148.702 32.216 148.702 30.36H152.782C152.782 31.064 152.926 31.6 153.214 31.968C153.502 32.32 153.918 32.496 154.462 32.496C154.958 32.496 155.342 32.336 155.614 32.016C155.886 31.696 156.022 31.232 156.022 30.624V19.152H160.126ZM176.665 22.608V36H172.561V34.176C172.145 34.768 171.577 35.248 170.857 35.616C170.153 35.968 169.369 36.144 168.505 36.144C167.481 36.144 166.577 35.92 165.793 35.472C165.009 35.008 164.401 34.344 163.969 33.48C163.537 32.616 163.321 31.6 163.321 30.432V22.608H167.401V29.88C167.401 30.776 167.633 31.472 168.097 31.968C168.561 32.464 169.185 32.712 169.969 32.712C170.769 32.712 171.401 32.464 171.865 31.968C172.329 31.472 172.561 30.776 172.561 29.88V22.608H176.665ZM178.797 29.28C178.797 27.904 179.053 26.696 179.565 25.656C180.093 24.616 180.805 23.816 181.701 23.256C182.597 22.696 183.597 22.416 184.701 22.416C185.645 22.416 186.469 22.608 187.173 22.992C187.893 23.376 188.445 23.88 188.829 24.504V22.608H192.933V36H188.829V34.104C188.429 34.728 187.869 35.232 187.149 35.616C186.445 36 185.621 36.192 184.677 36.192C183.589 36.192 182.597 35.912 181.701 35.352C180.805 34.776 180.093 33.968 179.565 32.928C179.053 31.872 178.797 30.656 178.797 29.28ZM188.829 29.304C188.829 28.28 188.541 27.472 187.965 26.88C187.405 26.288 186.717 25.992 185.901 25.992C185.085 25.992 184.389 26.288 183.813 26.88C183.253 27.456 182.973 28.256 182.973 29.28C182.973 30.304 183.253 31.12 183.813 31.728C184.389 32.32 185.085 32.616 185.901 32.616C186.717 32.616 187.405 32.32 187.965 31.728C188.541 31.136 188.829 30.328 188.829 29.304ZM200.006 24.84C200.486 24.104 201.086 23.528 201.806 23.112C202.526 22.68 203.326 22.464 204.206 22.464V26.808H203.078C202.054 26.808 201.286 27.032 200.774 27.48C200.262 27.912 200.006 28.68 200.006 29.784V36H195.902V22.608H200.006V24.84ZM205.352 29.28C205.352 27.904 205.608 26.696 206.12 25.656C206.648 24.616 207.36 23.816 208.256 23.256C209.152 22.696 210.152 22.416 211.256 22.416C212.2 22.416 213.024 22.608 213.728 22.992C214.448 23.376 215 23.88 215.384 24.504V22.608H219.488V36H215.384V34.104C214.984 34.728 214.424 35.232 213.704 35.616C213 36 212.176 36.192 211.232 36.192C210.144 36.192 209.152 35.912 208.256 35.352C207.36 34.776 206.648 33.968 206.12 32.928C205.608 31.872 205.352 30.656 205.352 29.28ZM215.384 29.304C215.384 28.28 215.096 27.472 214.52 26.88C213.96 26.288 213.272 25.992 212.456 25.992C211.64 25.992 210.944 26.288 210.368 26.88C209.808 27.456 209.528 28.256 209.528 29.28C209.528 30.304 209.808 31.12 210.368 31.728C210.944 32.32 211.64 32.616 212.456 32.616C213.272 32.616 213.96 32.32 214.52 31.728C215.096 31.136 215.384 30.328 215.384 29.304Z" fill="#FFD569"/>
</svg>
